<?xml version="1.0" encoding="UTF-8"?> <!-- Generator: Adobe Illustrator 16.0.0, SVG Export Plug-In . SVG Version: 6.00 Build 0) --> <svg xmlns="http://www.w3.org/2000/svg" xmlns:xlink="http://www.w3.org/1999/xlink" version="1.1" id="Layer_1" x="0px" y="0px" width="267.025px" height="132.014px" viewBox="0 0 267.025 132.014" xml:space="preserve"> <path fill="#FFFFFF" d="M22.932,59.546V14.344h24.899v11.317H37.645v5.658h10.046v11.32H37.646v5.658h10.257v11.247L22.932,59.546 L22.932,59.546z M51.44,59.546V14.344h25.678c4.904,0,7.356,1.909,7.356,5.729v33.885c0,3.728-2.452,5.589-7.356,5.589H51.44 L51.44,59.546z M69.761,25.804c0-0.095-0.048-0.143-0.144-0.143h-3.466v22.637h3.466c0.095,0,0.144-0.047,0.144-0.144V25.804z M95.226,59.546c-4.905,0-7.356-1.861-7.356-5.588V20.073c0-3.819,2.452-5.729,7.356-5.729h18.321c4.903,0,7.355,1.909,7.355,5.729 v7.641H106.19v-1.909c0-0.095-0.048-0.143-0.143-0.143h-3.324c-0.096,0-0.142,0.048-0.142,0.143v22.354 c0,0.095,0.046,0.142,0.142,0.142h3.467V31.89h14.713v27.657L95.226,59.546L95.226,59.546z M124.512,59.546V14.344h24.898v11.317 h-10.186v5.658h10.045v11.32h-10.045v5.658h10.258v11.247L124.512,59.546L124.512,59.546z M90.628,107.647 c-4.905,0-7.356-1.861-7.356-5.589V93.57h14.714v2.688c0,0.094,0.046,0.141,0.142,0.141h3.324c0.095,0,0.143-0.047,0.143-0.141 v-5.376c0-0.096-0.047-0.144-0.143-0.144H90.628c-4.905,0-7.356-1.909-7.356-5.729V68.175c0-3.819,2.452-5.729,7.356-5.729h18.32 c4.904,0,7.357,1.91,7.357,5.729v8.348h-14.714v-2.617c0-0.095-0.047-0.142-0.143-0.142h-3.324c-0.096,0-0.142,0.048-0.142,0.142 v5.376c0,0.096,0.046,0.144,0.142,0.144h10.822c4.904,0,7.357,1.862,7.357,5.588v17.048c0,3.728-2.453,5.589-7.357,5.589 L90.628,107.647L90.628,107.647z M119.843,107.647V62.446h25.679c4.903,0,7.356,1.91,7.356,5.729v16.837 c0,3.818-2.453,5.729-7.356,5.729h-10.964v16.906H119.843L119.843,107.647z M138.163,73.905c0-0.095-0.047-0.142-0.141-0.142h-3.466 v6.296h3.466c0.094,0,0.141-0.047,0.141-0.143V73.905z M181.386,121.725c-4.906,0-7.357-1.864-7.357-5.589V90.74h-3.606v16.906 h-14.715V68.175c0-3.818,2.45-5.729,7.356-5.729h18.322c4.9,0,7.354,1.91,7.354,5.729v42.159c0,0.096,0.047,0.143,0.144,0.143 h36.358v11.248H181.386L181.386,121.725z M174.029,73.905c0-0.095-0.049-0.142-0.143-0.142h-3.324c-0.095,0-0.142,0.048-0.142,0.142 v5.52h3.606L174.029,73.905L174.029,73.905z M199.566,107.647c-4.906,0-7.357-1.861-7.357-5.589V68.175 c0-3.819,2.451-5.729,7.357-5.729h18.32c4.902,0,7.355,1.91,7.355,5.729v13.368h-14.715v-7.64c0-0.095-0.047-0.142-0.141-0.142 h-3.324c-0.097,0-0.143,0.048-0.143,0.142v22.354c0,0.094,0.046,0.141,0.143,0.141h3.324c0.094,0,0.141-0.047,0.141-0.141v-10.54 h14.715v16.34c0,3.728-2.453,5.589-7.355,5.589H199.566L199.566,107.647z M228.781,107.647V62.446h24.898v11.317h-10.188v5.658 h10.045V90.74h-10.045v5.659h10.258v11.247L228.781,107.647L228.781,107.647z"></path> <g> <path fill="#F7F7F7" d="M156.398,59.513v-5.534h17.891c0.048,0,0.07-0.022,0.07-0.068V33.163c0-1.88,1.207-2.818,3.619-2.818h9.955 v5.568h-6.267c-0.048,0-0.067,0.022-0.067,0.068v1.288h6.266v5.569h-6.266v13.924c0,1.833-1.207,2.75-3.621,2.75H156.398 L156.398,59.513z M160.017,52.587c-2.414,0-3.619-0.917-3.619-2.75V33.163c0-1.88,1.205-2.818,3.619-2.818h9.016 c2.414,0,3.619,0.938,3.619,2.818v16.674c0,1.833-1.205,2.75-3.619,2.75H160.017L160.017,52.587z M165.413,35.982 c0-0.046-0.021-0.068-0.068-0.068h-1.638c-0.048,0-0.067,0.022-0.067,0.068v10.999c0,0.047,0.021,0.07,0.067,0.07h1.638 c0.047,0,0.068-0.023,0.068-0.07V35.982z"></path> </g> </svg> 