<?xml version="1.0" encoding="UTF-8"?> <!-- Generator: Adobe Illustrator 16.0.0, SVG Export Plug-In . SVG Version: 6.00 Build 0) --> <svg xmlns="http://www.w3.org/2000/svg" xmlns:xlink="http://www.w3.org/1999/xlink" version="1.1" id="Layer_1" x="0px" y="0px" width="267.026px" height="132.013px" viewBox="116.306 62.313 267.026 132.013" xml:space="preserve"> <path fill="#222222" stroke="#FFFFFF" stroke-width="0.6" stroke-miterlimit="10" d="M138.341,121.758V76.556h24.9v11.318h-10.187 v5.659H163.1v11.319h-10.045v5.658h10.257v11.248H138.341L138.341,121.758z M166.849,121.758V76.556h25.678 c4.904,0,7.356,1.91,7.356,5.729v33.884c0,3.727-2.452,5.589-7.356,5.589H166.849L166.849,121.758z M185.17,88.016 c0-0.094-0.047-0.142-0.142-0.142h-3.466v22.636h3.466c0.094,0,0.142-0.046,0.142-0.142V88.016z M210.635,121.758 c-4.905,0-7.356-1.862-7.356-5.588V82.285c0-3.82,2.452-5.729,7.356-5.729h18.322c4.904,0,7.356,1.91,7.356,5.729v7.64H221.6v-1.91 c0-0.094-0.048-0.142-0.142-0.142h-3.325c-0.095,0-0.141,0.048-0.141,0.142v22.354c0,0.095,0.046,0.141,0.141,0.141h3.467V94.1 h14.713v27.658H210.635L210.635,121.758z M239.921,121.758V76.556h24.9v11.318h-10.186v5.659h10.045v11.319h-10.045v5.658h10.258 v11.248H239.921L239.921,121.758z M206.037,169.859c-4.906,0-7.357-1.862-7.357-5.589v-8.488h14.714v2.688 c0,0.094,0.046,0.141,0.141,0.141h3.325c0.094,0,0.142-0.047,0.142-0.141v-5.376c0-0.095-0.047-0.142-0.142-0.142h-10.823 c-4.906,0-7.357-1.91-7.357-5.73v-16.836c0-3.819,2.452-5.729,7.357-5.729h18.321c4.904,0,7.357,1.91,7.357,5.729v8.348h-14.713 v-2.617c0-0.095-0.047-0.142-0.142-0.142h-3.325c-0.095,0-0.141,0.048-0.141,0.142v5.376c0,0.095,0.046,0.142,0.141,0.142h10.823 c4.904,0,7.357,1.863,7.357,5.588v17.048c0,3.727-2.453,5.589-7.357,5.589H206.037z M235.252,169.859v-45.201h25.678 c4.904,0,7.357,1.91,7.357,5.729v16.837c0,3.819-2.453,5.729-7.357,5.729h-10.964v16.906H235.252L235.252,169.859z M253.573,136.117 c0-0.095-0.047-0.142-0.141-0.142h-3.466v6.296h3.466c0.094,0,0.141-0.047,0.141-0.142V136.117z M296.795,183.937 c-4.906,0-7.357-1.864-7.357-5.589v-25.395h-3.607v16.906h-14.715v-39.473c0-3.818,2.451-5.729,7.357-5.729h18.322 c4.902,0,7.355,1.91,7.355,5.729v42.16c0,0.095,0.047,0.142,0.143,0.142h36.359v11.248H296.795L296.795,183.937z M289.438,136.117 c0-0.095-0.049-0.142-0.143-0.142h-3.324c-0.094,0-0.141,0.048-0.141,0.142v5.518h3.607V136.117L289.438,136.117z M314.975,169.859 c-4.906,0-7.357-1.862-7.357-5.589v-33.884c0-3.819,2.451-5.729,7.357-5.729h18.32c4.904,0,7.357,1.91,7.357,5.729v13.369h-14.715 v-7.639c0-0.095-0.047-0.142-0.141-0.142h-3.324c-0.096,0-0.141,0.048-0.141,0.142v22.354c0,0.094,0.045,0.141,0.141,0.141h3.324 c0.094,0,0.141-0.047,0.141-0.141v-10.54h14.715v16.34c0,3.727-2.453,5.589-7.357,5.589H314.975L314.975,169.859z M344.19,169.859 v-45.201h24.898v11.317h-10.186v5.659h10.045v11.318h-10.045v5.659h10.258v11.247H344.19L344.19,169.859z"></path> <g> <path fill="#444444" stroke="#FFFFFF" stroke-width="0.6" stroke-miterlimit="10" d="M271.807,121.725v-5.534h17.891 c0.047,0,0.07-0.023,0.07-0.069V95.375c0-1.88,1.207-2.819,3.619-2.819h9.955v5.569h-6.266c-0.047,0-0.068,0.023-0.068,0.069v1.288 h6.266v5.569h-6.266v13.924c0,1.833-1.207,2.75-3.621,2.75L271.807,121.725L271.807,121.725z M275.426,114.799 c-2.414,0-3.619-0.917-3.619-2.75V95.375c0-1.88,1.205-2.819,3.619-2.819h9.016c2.414,0,3.619,0.939,3.619,2.819v16.674 c0,1.833-1.205,2.75-3.619,2.75H275.426L275.426,114.799z M280.823,98.194c0-0.046-0.023-0.069-0.07-0.069h-1.637 c-0.047,0-0.068,0.023-0.068,0.069v10.999c0,0.047,0.021,0.07,0.068,0.07h1.637c0.047,0,0.07-0.023,0.07-0.07V98.194z"></path> </g> </svg> 