<?xml version="1.0" encoding="iso-8859-1"?>
<!-- Generator: Adobe Illustrator 16.0.0, SVG Export Plug-In . SVG Version: 6.00 Build 0)  -->
<!DOCTYPE svg PUBLIC "-//W3C//DTD SVG 1.1//EN" "http://www.w3.org/Graphics/SVG/1.1/DTD/svg11.dtd">
<svg version="1.1" id="Layer_1" xmlns="http://www.w3.org/2000/svg" xmlns:xlink="http://www.w3.org/1999/xlink" x="0px" y="0px"
	 width="512px" height="252px" viewBox="0 0 512 252" style="enable-background:new 0 0 512 252;" xml:space="preserve">
<linearGradient id="SVGID_1_" gradientUnits="userSpaceOnUse" x1="25.8882" y1="114.2803" x2="104.1821" y2="114.2803">
	<stop  offset="0" style="stop-color:#3F5C6C"/>
	<stop  offset="1" style="stop-color:#2C3E50"/>
</linearGradient>
<path style="fill:url(#SVGID_1_);" d="M86.686,60.991c5.833,3.402,10.4,7.823,13.705,13.266c0.679,1.072,1.021,2.239,1.021,3.502
	c0,1.846-0.874,3.305-2.625,4.373c-0.778,0.391-1.654,0.584-2.624,0.584c-1.07,0-2.066-0.268-2.989-0.802
	c-0.925-0.534-1.676-1.288-2.26-2.261c-5.444-8.554-13.657-12.878-24.64-12.976c-7.874,0-14.096,1.652-18.663,4.957
	c-4.569,3.305-6.852,8.019-6.852,14.143c0,11.372,9.185,18.274,27.555,20.704c12.052,1.747,21.044,5.443,26.975,11.079
	c5.928,5.638,8.893,13.075,8.893,22.309c0,6.803-1.653,12.684-4.957,17.641c-3.306,4.957-7.825,8.727-13.56,11.299
	c-5.736,2.574-12.151,3.865-19.245,3.865c-9.235,0-17.424-1.969-24.567-5.906c-7.145-3.938-12.272-9.258-15.382-15.965
	c-0.39-0.68-0.583-1.457-0.583-2.334c0-1.357,0.511-2.5,1.53-3.426c1.021-0.922,2.406-1.385,4.156-1.385
	c1.166,0,2.26,0.316,3.279,0.947c1.021,0.635,1.773,1.531,2.26,2.699c2.235,4.373,5.953,7.896,11.154,10.568
	c5.199,2.674,11.249,4.01,18.152,4.01c7.969,0,14.384-1.918,19.245-5.758c4.859-3.84,7.291-9.207,7.291-16.111
	c0-6.123-2.261-11.275-6.78-15.456c-4.521-4.177-11.3-6.852-20.34-8.02c-11.276-1.358-20.146-4.883-26.607-10.569
	c-6.466-5.687-9.696-12.66-9.696-20.923c0-5.831,1.579-10.957,4.739-15.381c3.157-4.423,7.531-7.822,13.122-10.206
	c5.588-2.38,11.93-3.572,19.026-3.572C74.097,55.887,80.855,57.589,86.686,60.991z"/>
<linearGradient id="SVGID_2_" gradientUnits="userSpaceOnUse" x1="126.4878" y1="148.0342" x2="207.5542" y2="148.0342">
	<stop  offset="0" style="stop-color:#3F5C6C"/>
	<stop  offset="1" style="stop-color:#2C3E50"/>
</linearGradient>
<path style="fill:url(#SVGID_2_);" d="M187.652,96.055c6.17,3.549,11.029,8.433,14.58,14.651c3.547,6.223,5.322,13.124,5.322,20.706
	c0,7.582-1.728,14.457-5.177,20.631c-3.45,6.174-8.165,11.033-14.144,14.58c-5.979,3.549-12.661,5.32-20.048,5.32
	c-6.317,0-12.101-1.334-17.35-4.01c-5.249-2.672-9.574-6.342-12.976-11.008v42.719c0,1.652-0.535,3.014-1.604,4.086
	c-1.072,1.064-2.431,1.604-4.082,1.604c-1.655,0-2.989-0.539-4.011-1.604c-1.02-1.072-1.529-2.434-1.529-4.086v-32.658
	c-0.099-0.291-0.147-0.729-0.147-1.313v-34.262c0-7.582,1.771-14.483,5.322-20.706c3.547-6.219,8.406-11.103,14.579-14.651
	c6.172-3.547,13.05-5.321,20.632-5.321C174.602,90.734,181.479,92.508,187.652,96.055z M182.112,157.803
	c4.52-2.627,8.064-6.244,10.642-10.863c2.575-4.617,3.863-9.791,3.863-15.527c0-5.734-1.288-10.911-3.863-15.527
	c-2.577-4.616-6.122-8.262-10.642-10.938c-4.521-2.672-9.551-4.008-15.091-4.008c-5.541,0-10.549,1.336-15.018,4.008
	c-4.472,2.676-7.998,6.321-10.571,10.938c-2.577,4.616-3.863,9.793-3.863,15.527c0,1.654,0.049,2.867,0.146,3.645
	c0.097,0.195,0.146,0.438,0.146,0.729c0.97,7.582,4.155,13.805,9.55,18.662c5.395,4.863,11.931,7.291,19.61,7.291
	C172.561,161.738,177.59,160.424,182.112,157.803z"/>
<linearGradient id="SVGID_3_" gradientUnits="userSpaceOnUse" x1="225.3384" y1="131.3389" x2="306.4023" y2="131.3389">
	<stop  offset="0" style="stop-color:#3F5C6C"/>
	<stop  offset="1" style="stop-color:#2C3E50"/>
</linearGradient>
<path style="fill:url(#SVGID_3_);" d="M286.502,96.055c6.17,3.549,11.029,8.433,14.58,14.651c3.547,6.223,5.32,13.124,5.32,20.706
	v34.262c0,1.557-0.535,2.869-1.604,3.938c-1.07,1.07-2.43,1.604-4.082,1.604c-1.654,0-3.014-0.51-4.082-1.529
	c-1.072-1.021-1.604-2.355-1.604-4.012v-8.748c-3.404,4.666-7.727,8.336-12.977,11.008c-5.25,2.676-11.033,4.01-17.35,4.01
	c-7.389,0-14.071-1.771-20.048-5.32c-5.979-3.547-10.693-8.406-14.142-14.58c-3.453-6.174-5.177-13.049-5.177-20.631
	c0-7.582,1.773-14.483,5.32-20.706c3.548-6.219,8.408-11.103,14.581-14.651c6.172-3.547,13.049-5.321,20.631-5.321
	C273.451,90.734,280.328,92.508,286.502,96.055z M280.887,157.803c4.471-2.627,7.996-6.244,10.572-10.863
	c2.574-4.617,3.863-9.791,3.863-15.527c0-5.734-1.289-10.911-3.863-15.527c-2.576-4.616-6.102-8.262-10.572-10.938
	c-4.473-2.672-9.475-4.008-15.016-4.008s-10.571,1.336-15.09,4.008c-4.52,2.676-8.07,6.321-10.644,10.938
	c-2.577,4.616-3.864,9.793-3.864,15.527c0,5.736,1.287,10.91,3.864,15.527c2.573,4.619,6.124,8.236,10.644,10.863
	c4.52,2.621,9.549,3.936,15.09,3.936S276.414,160.424,280.887,157.803z"/>
<linearGradient id="SVGID_4_" gradientUnits="userSpaceOnUse" x1="410.9375" y1="131.3389" x2="485.7324" y2="131.3389">
	<stop  offset="0" style="stop-color:#3F5C6C"/>
	<stop  offset="1" style="stop-color:#2C3E50"/>
</linearGradient>
<path style="fill:url(#SVGID_4_);" d="M468.238,95.763c5.541,3.353,9.842,7.996,12.904,13.924c3.061,5.931,4.59,12.685,4.59,20.268
	c0,1.553-0.486,2.795-1.457,3.715c-0.971,0.926-2.236,1.387-3.791,1.387h-58.902c0.777,7.971,3.887,14.434,9.332,19.391
	c5.441,4.957,12.244,7.436,20.412,7.436c3.498,0,7.02-0.604,10.57-1.82c3.547-1.217,6.389-2.746,8.527-4.596
	c1.264-0.969,2.576-1.457,3.936-1.457c1.07,0,2.139,0.389,3.211,1.166c1.262,1.168,1.895,2.479,1.895,3.938
	c0,1.266-0.535,2.383-1.604,3.354c-3.209,2.721-7.291,4.982-12.248,6.779c-4.957,1.799-9.721,2.697-14.287,2.697
	c-7.779,0-14.727-1.725-20.852-5.176c-6.123-3.449-10.912-8.26-14.361-14.432c-3.451-6.174-5.176-13.146-5.176-20.924
	c0-7.874,1.629-14.894,4.885-21.068c3.254-6.173,7.775-10.982,13.559-14.435c5.783-3.449,12.369-5.176,19.758-5.176
	C456.33,90.734,462.697,92.412,468.238,95.763z M430.766,107.646c-4.859,4.568-7.824,10.595-8.893,18.079h53.363
	c-0.779-7.484-3.498-13.511-8.164-18.079s-10.645-6.854-17.934-6.854C441.75,100.792,435.627,103.078,430.766,107.646z"/>
<path style="fill:#E57E25;" d="M263.367,187.58c2.855,1.666,5.096,3.832,6.717,6.5c0.33,0.523,0.498,1.096,0.498,1.715
	c0,0.904-0.428,1.619-1.287,2.141c-0.381,0.193-0.811,0.287-1.285,0.287c-0.525,0-1.014-0.131-1.463-0.393
	c-0.453-0.262-0.822-0.631-1.107-1.107c-2.668-4.189-6.693-6.311-12.075-6.359c-3.858,0-6.906,0.813-9.146,2.43
	c-2.237,1.621-3.357,3.93-3.357,6.932c0,5.572,4.502,8.953,13.504,10.145c5.907,0.855,10.311,2.666,13.215,5.43
	c2.906,2.762,4.359,6.404,4.359,10.93c0,3.334-0.811,6.215-2.43,8.645s-3.834,4.275-6.645,5.537
	c-2.811,1.26-5.952,1.893-9.428,1.893c-4.525,0-8.54-0.965-12.038-2.895c-3.501-1.928-6.015-4.535-7.537-7.822
	c-0.193-0.332-0.287-0.713-0.287-1.143c0-0.666,0.252-1.227,0.751-1.678c0.499-0.453,1.178-0.68,2.035-0.68
	c0.571,0,1.107,0.154,1.607,0.465c0.499,0.311,0.868,0.75,1.107,1.322c1.097,2.143,2.918,3.867,5.467,5.178
	c2.547,1.311,5.511,1.965,8.895,1.965c3.903,0,7.047-0.939,9.428-2.82c2.383-1.881,3.574-4.514,3.574-7.895
	c0-3.002-1.109-5.525-3.322-7.574c-2.215-2.047-5.537-3.357-9.967-3.93c-5.524-0.666-9.87-2.393-13.037-5.18
	c-3.168-2.787-4.752-6.203-4.752-10.25c0-2.857,0.773-5.371,2.322-7.537c1.547-2.168,3.691-3.834,6.43-5.002
	c2.739-1.166,5.847-1.75,9.324-1.75C257.199,185.078,260.508,185.912,263.367,187.58z"/>
<path style="fill:#E57E25;" d="M310.48,204.225c2.691,1.428,4.797,3.512,6.324,6.25c1.523,2.74,2.287,6.016,2.287,9.822v18.576
	c0,0.764-0.264,1.406-0.787,1.93c-0.525,0.523-1.166,0.785-1.93,0.785c-0.809,0-1.477-0.262-2-0.785s-0.785-1.166-0.785-1.93
	v-18.576c0-4.236-1.18-7.463-3.535-9.678c-2.359-2.215-5.443-3.322-9.254-3.322c-2.334,0-4.439,0.453-6.322,1.357
	s-3.371,2.154-4.465,3.75c-1.096,1.596-1.645,3.371-1.645,5.322v21.146c0,0.809-0.25,1.465-0.748,1.967
	c-0.502,0.498-1.156,0.748-1.965,0.748c-0.811,0-1.477-0.25-2.002-0.748c-0.525-0.502-0.785-1.158-0.785-1.967v-50.295
	c0-0.809,0.26-1.475,0.785-2s1.191-0.787,2.002-0.787c0.809,0,1.463,0.262,1.965,0.787c0.498,0.525,0.748,1.191,0.748,2v19.146
	c1.572-1.762,3.477-3.145,5.717-4.143c2.238-1.002,4.668-1.5,7.287-1.5C304.752,202.082,307.789,202.795,310.48,204.225z"/>
<path style="fill:#E57E25;" d="M359.133,204.76c3.023,1.74,5.406,4.133,7.143,7.182c1.74,3.047,2.609,6.43,2.609,10.145v16.787
	c0,0.764-0.262,1.406-0.787,1.93s-1.191,0.785-2,0.785c-0.811,0-1.477-0.25-2.002-0.748c-0.523-0.502-0.783-1.158-0.783-1.967
	v-4.285c-1.668,2.285-3.787,4.084-6.357,5.393c-2.572,1.313-5.408,1.967-8.504,1.967c-3.619,0-6.895-0.869-9.822-2.609
	c-2.928-1.736-5.24-4.121-6.93-7.145c-1.691-3.023-2.535-6.395-2.535-10.107c0-3.715,0.867-7.098,2.605-10.145
	c1.738-3.049,4.119-5.441,7.145-7.182c3.023-1.738,6.395-2.607,10.111-2.607C352.736,202.152,356.107,203.021,359.133,204.76z
	 M356.383,235.016c2.189-1.285,3.916-3.061,5.178-5.32c1.264-2.266,1.896-4.799,1.896-7.609c0-2.813-0.633-5.346-1.896-7.611
	c-1.262-2.26-2.988-4.045-5.178-5.357c-2.191-1.309-4.645-1.963-7.357-1.963c-2.717,0-5.182,0.654-7.398,1.963
	c-2.213,1.313-3.951,3.098-5.213,5.357c-1.262,2.266-1.893,4.799-1.893,7.611c0,2.811,0.631,5.344,1.893,7.609
	c1.262,2.26,3,4.035,5.213,5.32c2.217,1.287,4.682,1.928,7.398,1.928C351.738,236.943,354.191,236.303,356.383,235.016z"/>
<path style="fill:#E57E25;" d="M407.498,204.76c3.023,1.74,5.406,4.133,7.145,7.182c1.738,3.047,2.605,6.43,2.605,10.145v16.787
	c0,0.764-0.262,1.406-0.783,1.93c-0.525,0.523-1.191,0.785-2,0.785c-0.813,0-1.479-0.25-2.002-0.748
	c-0.523-0.502-0.787-1.158-0.787-1.967v-4.285c-1.666,2.285-3.785,4.084-6.355,5.393c-2.574,1.313-5.406,1.967-8.504,1.967
	c-3.617,0-6.895-0.869-9.822-2.609c-2.93-1.736-5.238-4.121-6.93-7.145s-2.535-6.395-2.535-10.107c0-3.715,0.869-7.098,2.605-10.145
	c1.74-3.049,4.119-5.441,7.143-7.182c3.025-1.738,6.396-2.607,10.111-2.607S404.473,203.021,407.498,204.76z M404.748,235.016
	c2.189-1.285,3.916-3.061,5.18-5.32c1.26-2.266,1.893-4.799,1.893-7.609c0-2.813-0.633-5.346-1.893-7.611
	c-1.264-2.26-2.99-4.045-5.18-5.357c-2.193-1.309-4.645-1.963-7.359-1.963c-2.713,0-5.178,0.654-7.395,1.963
	c-2.215,1.313-3.953,3.098-5.215,5.357c-1.264,2.266-1.893,4.799-1.893,7.611c0,2.811,0.629,5.344,1.893,7.609
	c1.262,2.26,3,4.035,5.215,5.32c2.217,1.287,4.682,1.928,7.395,1.928C400.104,236.943,402.555,236.303,404.748,235.016z"/>
<path style="fill:#E57E25;" d="M427.32,186.543c0.525-0.5,1.168-0.752,1.932-0.752c0.809,0,1.463,0.252,1.965,0.752
	c0.498,0.498,0.748,1.156,0.748,1.965v40.721c0,2.049,0.418,3.717,1.252,5.002s1.891,1.93,3.178,1.93h1.787
	c0.713,0,1.285,0.25,1.715,0.748c0.43,0.502,0.643,1.156,0.643,1.965s-0.299,1.465-0.893,1.967
	c-0.598,0.498-1.371,0.748-2.324,0.748h-0.928c-2.904,0-5.277-1.152-7.107-3.465c-1.836-2.309-2.75-5.275-2.75-8.895v-40.721
	C426.537,187.699,426.797,187.041,427.32,186.543z"/>
<path style="fill:#E57E25;" d="M473.867,204.76c3.023,1.74,5.404,4.133,7.145,7.182c1.736,3.047,2.607,6.43,2.607,10.145v16.787
	c0,0.764-0.262,1.406-0.787,1.93c-0.523,0.523-1.191,0.785-2,0.785s-1.477-0.25-2-0.748c-0.523-0.502-0.785-1.158-0.785-1.967
	v-4.285c-1.668,2.285-3.789,4.084-6.359,5.393c-2.572,1.313-5.406,1.967-8.504,1.967c-3.617,0-6.893-0.869-9.82-2.609
	c-2.93-1.736-5.24-4.121-6.932-7.145s-2.535-6.395-2.535-10.107c0-3.715,0.869-7.098,2.607-10.145
	c1.738-3.049,4.119-5.441,7.146-7.182c3.023-1.738,6.393-2.607,10.107-2.607S470.842,203.021,473.867,204.76z M471.117,235.016
	c2.189-1.285,3.916-3.061,5.178-5.32c1.262-2.266,1.895-4.799,1.895-7.609c0-2.813-0.633-5.346-1.895-7.611
	c-1.262-2.26-2.988-4.045-5.178-5.357c-2.191-1.309-4.645-1.963-7.359-1.963s-5.18,0.654-7.395,1.963
	c-2.215,1.313-3.955,3.098-5.217,5.357c-1.262,2.266-1.891,4.799-1.891,7.611c0,2.811,0.629,5.344,1.891,7.609
	c1.262,2.26,3.002,4.035,5.217,5.32c2.215,1.287,4.68,1.928,7.395,1.928S468.926,236.303,471.117,235.016z"/>
<linearGradient id="SVGID_5_" gradientUnits="userSpaceOnUse" x1="324.043" y1="132.1895" x2="391.8398" y2="132.1895">
	<stop  offset="0" style="stop-color:#3F5C6C"/>
	<stop  offset="1" style="stop-color:#2C3E50"/>
</linearGradient>
<path style="fill:url(#SVGID_5_);" d="M386.592,153.865c-1.363,0-2.674,0.533-3.938,1.602c-4.764,4.182-11.033,6.271-18.809,6.271
	c-5.639,0-10.643-1.314-15.018-3.936c-4.373-2.627-7.777-6.244-10.207-10.863c-2.428-4.617-3.643-9.791-3.643-15.527
	c0-5.833,1.141-11.082,3.426-15.747c2.281-4.667,5.516-8.285,9.695-10.861c3.688-2.275,7.836-3.542,12.438-3.808
	c0-0.538-0.002-1.078-0.002-1.617c-0.004-3.28-1.145-4.774-4.311-5.579c-1.834-0.468-3.67-0.914-5.506-1.364
	c-2.805,0.857-5.482,2.028-8.014,3.547c-5.832,3.498-10.4,8.336-13.705,14.506c-3.305,6.173-4.957,13.148-4.957,20.923
	c0,7.582,1.725,14.457,5.174,20.631s8.189,11.033,14.219,14.58c6.025,3.549,12.828,5.32,20.41,5.32
	c10.691,0,19.537-3.256,26.537-9.768c0.971-0.875,1.457-1.945,1.457-3.209c0-1.457-0.68-2.768-2.041-3.936
	C388.824,154.254,387.756,153.865,386.592,153.865z"/>
<g id="_x30_19---Astronaut-Sitting-On-Planet">
	<path id="Shape" style="fill:#2C3E50;" d="M337.773,89.694c-2.27-0.9-3.891-2.939-4.256-5.354l-5.377-35.9
		c-0.512-3.41,1.584-6.669,4.895-7.62l16.018-5.218l-1.213,57.457C344.352,92.386,340.967,91.254,337.773,89.694L337.773,89.694z"/>
	<path id="Shape_2_" style="fill:#E57E25;" d="M390.973,111.227c-0.998,3.403-4.119,5.741-7.668,5.741
		c-4.4-0.05-7.957-3.607-8.006-8.009v4.44c0.051,3.842-2.59,7.199-6.338,8.054c-2.379,0.517-4.865-0.081-6.75-1.624
		c-1.887-1.54-2.965-3.856-2.928-6.293v-14.85c0.027-1.076-0.695-2.029-1.74-2.289c-10.959-2.721-11.967-2.654-13.936-4.577
		c8.385-6.335,19.486-7.776,29.211-3.794C382.543,92.01,389.443,100.832,390.973,111.227L390.973,111.227z"/>
	<path id="Shape_5_" style="fill:#35495E;" d="M391.314,82.511c0,24.321,0.299,24.022-0.803,26.311
		c-0.898,1.92-2.531,3.4-4.531,4.11c-1.996,0.706-4.197,0.587-6.105-0.334c-2.777-1.329-4.555-4.128-4.576-7.207v4.349
		c0.051,3.843-2.59,7.2-6.338,8.055c-2.365,0.51-4.834-0.074-6.715-1.597s-2.971-3.811-2.963-6.229V95.093
		c0.027-1.075-0.695-2.028-1.74-2.288c-11.602-2.883-10.617-2.605-11.1-2.792c-3.217-1.117-5.396-4.12-5.467-7.526V57.476
		l36.105-2.563l12.197,22.265C390.594,78.64,391.318,80.539,391.314,82.511z"/>
	<path id="Shape_6_" style="fill:#2C3E50;" d="M379.875,83.654v28.944c-2.795-1.312-4.578-4.12-4.576-7.207
		c0-24.097,0.297-22.88-0.848-24.736c-0.398-1.044,0.014-2.222,0.979-2.788c0.963-0.565,2.195-0.354,2.912,0.5
		C379.324,79.956,379.855,81.784,379.875,83.654L379.875,83.654z"/>
	<path id="Shape_11_" style="fill:#3F5C6C;" d="M341.982,50.314c-0.893,1.488-0.867,2.128-1.533,6.203
		c-1.486,8.915,3.014,17.761,11.1,21.804c14.871,7.414,14.758,7.622,16.885,7.622c2.479-0.004,4.766-1.344,5.98-3.506
		c1.213-2.162,1.168-4.813-0.123-6.929c-1.371-2.289-3.088-2.7-8.764-5.562l-7.826-3.913c-1.959-0.974-3.336-2.83-3.705-4.989
		L341.982,50.314z"/>
	<path id="Shape_12_" style="fill:#3F5C6C;" d="M373.01,61.343c5.447,12.014,0.643,13.729,2.84,18.465
		c2.857,6.271,17.205,6.865,13.109-14.186c-0.756-3.959-2.129-9.588-5.309-12.313L373.01,61.343z"/>
	<path id="Shape_15_" style="fill:#547580;" d="M338.689,37.89c0,13.901,11.268,25.169,25.168,25.169s25.168-11.268,25.168-25.169
		c0-13.9-11.268-25.169-25.168-25.169S338.689,23.99,338.689,37.89z"/>
	<path id="Shape_16_" style="fill:#F0C419;" d="M385.848,50.131c-9.428,5.883-23.637,4.736-31.143-2.402
		c-11.074-10.456-0.963-25.855,17.16-25.855c4.922-0.07,9.764,1.237,13.982,3.775C390.084,33.26,390.084,42.52,385.848,50.131z"/>
	<path id="Shape_17_" style="fill:#F9EAB0;" d="M382.162,40.177c-1.264,0-2.287-1.023-2.287-2.287c0-6.864-8.787-6.864-9.152-6.864
		c-1.266,0-2.289-1.024-2.289-2.288s1.023-2.288,2.289-2.288c4.758,0,13.727,2.288,13.727,11.44
		C384.449,39.154,383.426,40.177,382.162,40.177z"/>
	<path id="Shape_18_" style="fill:#F29C1F;" d="M388.088,44.754c-0.547,1.892-1.316,3.713-2.287,5.423
		c-6.734,3.906-14.789,4.842-22.24,2.585c-11.646-3.523-16.611-13.499-11.439-21.554C359.396,39.697,371.064,47.751,388.088,44.754z
		"/>
</g>
</svg>
